# xmcd
#
# Track frame offsets: 
#        150
#        9510
#        24922
#        38592
#        50900
#        64067
#        77050
#        90367
#        122435
#        137325
#        149435
#        164217
#        177770
#        196297
#        209887
#
# Disc length: 3006 seconds
#
# Revision: 0
# Processed by: cddbd v1.5.2PL0 Copyright (c) Steve Scherf et al.
# Submitted via: ExactAudioCopyFreeDBPlugin 1.0
#
DISCID=cc0bbc0f
DTITLE=Pedro Vargas - Pedro Vargas - Viva
DYEAR=1991
DGENRE=Mexicana
TTITLE0=Esperame en El Cielo
TTITLE1=Acercate Mas
TTITLE2=Adios
TTITLE3=Flor de Liz
TTITLE4=El Reloj
TTITLE5=Amaneci en Tus Brazos
TTITLE6=La Flor de La Canela
TTITLE7=Popurri Alvaro Carrillo
TTITLE8=La Cumparsita
TTITLE9=Delirio
TTITLE10=Amigo
TTITLE11=Esta Tarde Vi Llover
TTITLE12=Abrazame
TTITLE13=Nuestros Recuerdos
TTITLE14=Mi Ciudad
EXTD=
EXTT0=
EXTT1=
EXTT2=
EXTT3=
EXTT4=
EXTT5=
EXTT6=
EXTT7=
EXTT8=
EXTT9=
EXTT10=
EXTT11=
EXTT12=
EXTT13=
EXTT14=
PLAYORDER=
